<svg id="Capa_1" data-name="Capa 1" xmlns="http://www.w3.org/2000/svg" viewBox="0 0 337 154"><defs><style>.cls-1{fill:#532331;}.cls-2{fill:#a35f74;}.cls-3{fill:#893a4d;}</style></defs><title>color&amp;amp;destellos</title><path class="cls-1" d="M8.26,59.38c0-14.69,11-20.7,21-20.7s15.64,5.77,15.64,13.59c0,4.74-3,8.37-7.58,8.37-4.19,0-7.19-2.69-7.19-7s2.92-6.79,6.56-6.79a6.3,6.3,0,0,1,3.55,1,6.9,6.9,0,0,0-7.11-5.37c-5.53,0-8.93,5.69-8.93,16.19s3.4,16.43,11.22,16.43c5.61,0,11.3-4,15.88-16.27l3.16.55C49,75.73,40.26,80.54,29.28,80.54,17.9,80.54,8.26,73.28,8.26,59.38Z"/><path class="cls-1" d="M90.15,59.61c0,12.64-8.37,20.85-20.38,20.85S49.31,72.25,49.31,59.61s8.45-20.93,20.46-20.93S90.15,47.05,90.15,59.61Zm-15.56,0c0-11.61-1.42-16.35-4.82-16.35s-4.9,5-4.9,16.35,1.5,16.27,4.9,16.27S74.59,71.22,74.59,59.61Z"/><path class="cls-1" d="M120.88,58.74c-2,11.14-7.35,21.8-17.38,21.8-7.5,0-12.09-3.4-12.17-12.88v-46h4.19c7.82,0,10.59,2.76,10.59,9.24V69.49c0,2.53.95,4.5,2.92,4.5,2.37,0,5.77-3.48,8.93-16Z"/><path class="cls-1" d="M156.16,59.61c0,12.64-8.37,20.85-20.38,20.85s-20.46-8.21-20.46-20.85,8.45-20.93,20.46-20.93S156.16,47.05,156.16,59.61Zm-15.56,0c0-11.61-1.42-16.35-4.82-16.35s-4.9,5-4.9,16.35,1.5,16.27,4.9,16.27S140.6,71.22,140.6,59.61Z"/><path class="cls-1" d="M161.54,39.86c4.82,0,7.66,1.42,9.16,3.79a11.16,11.16,0,0,1,9.48-5c7.11,0,10.58,5,10.58,11.3,0,6.08-3.79,9.16-8.14,9.16a6.65,6.65,0,0,1-6.79-6.79,6.45,6.45,0,0,1,6.4-6.56,5.37,5.37,0,0,1,4.58,2.29c-.71-3.4-2.84-5.45-6.4-5.45-4.19,0-8.21,2.05-8.37,11.22V79.36H157.36V39.86Z"/><path class="cls-2" d="M196,63.25C196,52.5,206.47,48,214.76,47.29,207,46.26,201,42.94,201,35.68c0-9.79,9.72-14.06,19.43-14,12,0,16,6.4,16,12.4,0,4.82-2.61,8.22-7,8.22-3.48,0-6.64-2.05-6.64-6.08a6,6,0,0,1,6.24-6.16,6.2,6.2,0,0,1,3.24.87,8.22,8.22,0,0,0-7.9-5c-5-.08-8.77,3.4-8.77,9.64s3.71,9.72,7.11,10v3c-6.48,1.26-10.43,6.64-10.43,14.54,0,8.61,6.48,12.88,13.82,12.88s14.38-3.63,14.38-11.85c0-7-4.66-8.93-8.53-8.93-4,0-7.35,1.82-7.74,6.08a5.78,5.78,0,0,1,5.06-2.61,5.46,5.46,0,0,1,5.77,5.61c0,3.79-3.16,5.85-6.56,5.85-3.55,0-6.63-2.29-6.63-9,0-7.11,2.69-15.88,16.75-15.88,9.79,0,12.72-.79,13.27-5.61a6.56,6.56,0,0,1-4.74,1.9A5.43,5.43,0,0,1,241.54,36a6.05,6.05,0,0,1,6.32-6.32c4.5,0,6.87,3.24,6.87,9.64,0,10-4,15.09-12.88,15.88a15.9,15.9,0,0,1,2.69,9.08c0,9.48-8.45,16.27-23,16.27S196.12,74.94,196,63.25Z"/><path class="cls-1" d="M34.25,138.44c-2.61,4.74-5.69,7.11-10.51,7.11-6.71,0-15.48-5.29-15.48-20.85s9.16-21,15.48-21c3.71,0,7.66,1.26,9.79,6.08V86.69h4.19c7.82,0,10.58,2.76,10.58,9.24v38.55c0,2.53.95,4.5,2.92,4.5,2.37,0,5.77-3.48,8.93-16l2.92.71c-2,11.14-7.35,21.8-17.38,21.8C40.41,145.54,36.62,143.73,34.25,138.44Zm-.39-13.82c0-9.64-1.58-14.3-4.82-14.3s-4.9,4.82-4.9,14.3,1.66,14.22,4.9,14.22S33.86,134.25,33.86,124.61Z"/><path class="cls-1" d="M73.88,129.35c1,8.06,4.66,10.9,10.58,10.9,7.11,0,13.35-6,16.19-16.35l3.24.55c-3.79,14.61-12.4,21.09-25,21.09-10.9,0-21.33-6.48-21.33-21.09S68,103.68,77.75,103.68s16.43,3.79,16.43,12.72-8.29,13-17.54,13C75.54,129.43,74.59,129.35,73.88,129.35Zm-.24-3.24c5.29-.16,7.82-4.5,7.82-10.35,0-5.61-1.42-7.66-3.24-7.66-2.92,0-4.66,5.21-4.66,15.4C73.57,124.45,73.57,125.32,73.65,126.11Z"/><path class="cls-1" d="M97.46,132c0-6,3.4-9.48,7.5-9.72A118.44,118.44,0,0,0,108.67,109c1.11-4.74,3.16-5.85,7.58-5.85h8.85c3,12.24,9.56,17.62,9.56,27.57,0,8.85-7.27,14.85-20.3,14.85C101.64,145.54,97.38,137.65,97.46,132Zm12-8.61a7.31,7.31,0,0,1,3.63,6.71c0,5.06-3.48,8.06-7.74,8.06a4.15,4.15,0,0,1-1.5-.16,8.22,8.22,0,0,0,7,3.32c4.74,0,8.37-2.53,8.37-9.08,0-7-3.87-12.56-5.69-23.7C112.62,112,111.36,117.82,109.46,123.35Z"/><path class="cls-1" d="M156.35,109.68h-5.85v24.8c0,3.63,1.34,4.82,3.32,4.82,2.37,0,6.16-2.13,9.32-14.38l2.77.79c-2.53,12.8-8,19.83-18,19.83-8.45,0-12.16-5.45-12.16-13.9v-22h-4.82v-4.82h4.82V91.59h4.19c7.82,0,10.59,2.76,10.59,9.24v4h5.85Z"/><path class="cls-1" d="M177.4,129.35c1,8.06,4.66,10.9,10.59,10.9,7.11,0,13.35-6,16.19-16.35l3.24.55c-3.79,14.61-12.4,21.09-25,21.09-10.9,0-21.33-6.48-21.33-21.09s10.35-20.78,20.14-20.78,16.43,3.79,16.43,12.72-8.29,13-17.54,13C179.06,129.43,178.12,129.35,177.4,129.35Zm-.24-3.24c5.29-.16,7.82-4.5,7.82-10.35,0-5.61-1.42-7.66-3.24-7.66-2.92,0-4.66,5.21-4.66,15.4C177.09,124.45,177.09,125.32,177.17,126.11Z"/><path class="cls-1" d="M232.54,123.74c-2,11.14-7.35,21.8-17.38,21.8-7.5,0-12.09-3.4-12.17-12.88v-46h4.19c7.82,0,10.58,2.76,10.58,9.24v38.55c0,2.53.95,4.5,2.92,4.5,2.37,0,5.77-3.48,8.93-16Z"/><path class="cls-1" d="M257.26,123.74c-2,11.14-7.35,21.8-17.38,21.8-7.5,0-12.09-3.4-12.17-12.88v-46h4.19c7.82,0,10.58,2.76,10.58,9.24v38.55c0,2.53.95,4.5,2.92,4.5,2.37,0,5.77-3.48,8.93-16Z"/><path class="cls-1" d="M292.54,124.61c0,12.64-8.37,20.85-20.38,20.85s-20.46-8.21-20.46-20.85,8.45-20.93,20.46-20.93S292.54,112.05,292.54,124.61Zm-15.56,0c0-11.61-1.42-16.35-4.82-16.35s-4.9,5-4.9,16.35,1.5,16.27,4.9,16.27S277,136.22,277,124.61Z"/><path class="cls-1" d="M290.85,132c0-6,3.4-9.48,7.5-9.72A118.86,118.86,0,0,0,302.07,109c1.11-4.74,3.16-5.85,7.58-5.85h8.85c3,12.24,9.56,17.62,9.56,27.57,0,8.85-7.27,14.85-20.3,14.85C295,145.54,290.78,137.65,290.85,132Zm12-8.61a7.31,7.31,0,0,1,3.63,6.71c0,5.06-3.48,8.06-7.74,8.06a4.16,4.16,0,0,1-1.5-.16,8.22,8.22,0,0,0,7,3.32c4.74,0,8.37-2.53,8.37-9.08,0-7-3.87-12.56-5.69-23.7C306,112,304.76,117.82,302.86,123.35Z"/><path class="cls-3" d="M277.71,96.7c8.25,0,12.57-2,17.48-6a19,19,0,0,0,7-16.16,16.9,16.9,0,0,0-8.46-13.29h0c-7.11-4.11-13.83-4.83-18.92-2.12a14.17,14.17,0,0,0-7.17,11.69,40.26,40.26,0,0,0,.12,4.65c.17,2.84.35,5.77-.47,7.75-1.15,2.76-4.57,4.92-6.21,5.68a3.32,3.32,0,0,0-1,.63,3.52,3.52,0,0,0-.13,1.24C259.88,94.23,265.71,96.7,277.71,96.7Z"/><path class="cls-1" d="M304.77,62.62A5.88,5.88,0,0,0,310,59.36s9.19-21.93,11.78-31.31c2-7.31,4.6-15-2.18-18.44l-.52-.25H319C314.36,7.11,306.9,16,303.8,21c-4.26,6.91-18.63,26.61-18.63,26.61a5.89,5.89,0,0,0,2.63,7.91l.22.11,14.32,6.44A5.9,5.9,0,0,0,304.77,62.62Z"/></svg>